<mxfile host="Electron" agent="Mozilla/5.0 (Macintosh; Intel Mac OS X 10_15_7) AppleWebKit/537.36 (KHTML, like Gecko) draw.io/27.0.9 Chrome/134.0.6998.205 Electron/35.4.0 Safari/537.36" version="27.0.9">
  <diagram name="Page-1" id="yopMhWIwGpABeaLNxU8j">
    <mxGraphModel dx="946" dy="1866" grid="0" gridSize="10" guides="1" tooltips="1" connect="1" arrows="1" fold="1" page="1" pageScale="1" pageWidth="850" pageHeight="1100" math="0" shadow="0">
      <root>
        <mxCell id="0" />
        <mxCell id="1" parent="0" />
        <mxCell id="mjO54RYIK2q9qsRKrQm9-29" value="" style="rounded=0;whiteSpace=wrap;html=1;labelBackgroundColor=none;textOpacity=0;fillColor=none;strokeWidth=1;dashed=1;dashPattern=8 8;" vertex="1" parent="1">
          <mxGeometry x="170" y="330" width="370" height="190" as="geometry" />
        </mxCell>
        <mxCell id="mjO54RYIK2q9qsRKrQm9-31" value="" style="rounded=0;whiteSpace=wrap;html=1;labelBackgroundColor=none;textOpacity=0;fillColor=none;strokeWidth=1;dashed=1;dashPattern=8 8;" vertex="1" parent="1">
          <mxGeometry x="170" y="20" width="540" height="280" as="geometry" />
        </mxCell>
        <mxCell id="mjO54RYIK2q9qsRKrQm9-1" value="Input receipt&lt;div&gt;&amp;nbsp;image&lt;/div&gt;" style="shape=parallelogram;perimeter=parallelogramPerimeter;whiteSpace=wrap;html=1;fixedSize=1;" vertex="1" parent="1">
          <mxGeometry x="30" y="40" width="120" height="60" as="geometry" />
        </mxCell>
        <mxCell id="mjO54RYIK2q9qsRKrQm9-6" value="" style="edgeStyle=orthogonalEdgeStyle;rounded=0;orthogonalLoop=1;jettySize=auto;html=1;" edge="1" parent="1" source="mjO54RYIK2q9qsRKrQm9-2" target="mjO54RYIK2q9qsRKrQm9-3">
          <mxGeometry relative="1" as="geometry" />
        </mxCell>
        <mxCell id="mjO54RYIK2q9qsRKrQm9-2" value="Image background removal (Expand Scope)" style="rounded=0;whiteSpace=wrap;html=1;" vertex="1" parent="1">
          <mxGeometry x="200" y="40" width="120" height="60" as="geometry" />
        </mxCell>
        <mxCell id="mjO54RYIK2q9qsRKrQm9-16" value="" style="edgeStyle=orthogonalEdgeStyle;rounded=0;orthogonalLoop=1;jettySize=auto;html=1;" edge="1" parent="1" source="mjO54RYIK2q9qsRKrQm9-3" target="mjO54RYIK2q9qsRKrQm9-14">
          <mxGeometry relative="1" as="geometry" />
        </mxCell>
        <mxCell id="mjO54RYIK2q9qsRKrQm9-3" value="Grayscale" style="rounded=0;whiteSpace=wrap;html=1;" vertex="1" parent="1">
          <mxGeometry x="360" y="40" width="120" height="60" as="geometry" />
        </mxCell>
        <mxCell id="mjO54RYIK2q9qsRKrQm9-4" value="" style="endArrow=classic;html=1;rounded=0;entryX=0;entryY=0.5;entryDx=0;entryDy=0;exitX=1;exitY=0.5;exitDx=0;exitDy=0;" edge="1" parent="1" source="mjO54RYIK2q9qsRKrQm9-1" target="mjO54RYIK2q9qsRKrQm9-2">
          <mxGeometry width="50" height="50" relative="1" as="geometry">
            <mxPoint x="146" y="182" as="sourcePoint" />
            <mxPoint x="450" y="370" as="targetPoint" />
          </mxGeometry>
        </mxCell>
        <mxCell id="mjO54RYIK2q9qsRKrQm9-12" value="" style="edgeStyle=orthogonalEdgeStyle;rounded=0;orthogonalLoop=1;jettySize=auto;html=1;" edge="1" parent="1" source="mjO54RYIK2q9qsRKrQm9-8" target="mjO54RYIK2q9qsRKrQm9-20">
          <mxGeometry relative="1" as="geometry">
            <mxPoint x="360" y="170" as="targetPoint" />
          </mxGeometry>
        </mxCell>
        <mxCell id="mjO54RYIK2q9qsRKrQm9-8" value="fix image tilt" style="rounded=0;whiteSpace=wrap;html=1;" vertex="1" parent="1">
          <mxGeometry x="550" y="140" width="120" height="60" as="geometry" />
        </mxCell>
        <mxCell id="mjO54RYIK2q9qsRKrQm9-14" value="Text detection" style="rounded=0;whiteSpace=wrap;html=1;" vertex="1" parent="1">
          <mxGeometry x="510" y="40" width="120" height="60" as="geometry" />
        </mxCell>
        <mxCell id="mjO54RYIK2q9qsRKrQm9-19" value="" style="endArrow=classic;html=1;rounded=0;entryX=0.5;entryY=0;entryDx=0;entryDy=0;exitX=0.5;exitY=1;exitDx=0;exitDy=0;" edge="1" parent="1" source="mjO54RYIK2q9qsRKrQm9-14" target="mjO54RYIK2q9qsRKrQm9-8">
          <mxGeometry width="50" height="50" relative="1" as="geometry">
            <mxPoint x="400" y="420" as="sourcePoint" />
            <mxPoint x="450" y="370" as="targetPoint" />
          </mxGeometry>
        </mxCell>
        <mxCell id="mjO54RYIK2q9qsRKrQm9-22" style="edgeStyle=orthogonalEdgeStyle;rounded=0;orthogonalLoop=1;jettySize=auto;html=1;exitX=0;exitY=0.5;exitDx=0;exitDy=0;entryX=1;entryY=0.5;entryDx=0;entryDy=0;" edge="1" parent="1" source="mjO54RYIK2q9qsRKrQm9-20" target="mjO54RYIK2q9qsRKrQm9-21">
          <mxGeometry relative="1" as="geometry" />
        </mxCell>
        <mxCell id="mjO54RYIK2q9qsRKrQm9-23" value="True" style="edgeLabel;html=1;align=center;verticalAlign=middle;resizable=0;points=[];" vertex="1" connectable="0" parent="mjO54RYIK2q9qsRKrQm9-22">
          <mxGeometry x="-0.4667" y="-1" relative="1" as="geometry">
            <mxPoint as="offset" />
          </mxGeometry>
        </mxCell>
        <mxCell id="mjO54RYIK2q9qsRKrQm9-26" style="edgeStyle=orthogonalEdgeStyle;rounded=0;orthogonalLoop=1;jettySize=auto;html=1;exitX=0.5;exitY=1;exitDx=0;exitDy=0;" edge="1" parent="1" source="mjO54RYIK2q9qsRKrQm9-20" target="mjO54RYIK2q9qsRKrQm9-24">
          <mxGeometry relative="1" as="geometry" />
        </mxCell>
        <mxCell id="mjO54RYIK2q9qsRKrQm9-27" value="False" style="edgeLabel;html=1;align=center;verticalAlign=middle;resizable=0;points=[];" vertex="1" connectable="0" parent="mjO54RYIK2q9qsRKrQm9-26">
          <mxGeometry x="-0.488" y="1" relative="1" as="geometry">
            <mxPoint as="offset" />
          </mxGeometry>
        </mxCell>
        <mxCell id="mjO54RYIK2q9qsRKrQm9-20" value="Upside/sideways?&lt;br&gt;(Expand Scope)" style="ellipse;whiteSpace=wrap;html=1;" vertex="1" parent="1">
          <mxGeometry x="390" y="130" width="120" height="80" as="geometry" />
        </mxCell>
        <mxCell id="mjO54RYIK2q9qsRKrQm9-21" value="Rotate" style="rounded=0;whiteSpace=wrap;html=1;" vertex="1" parent="1">
          <mxGeometry x="200" y="140" width="120" height="60" as="geometry" />
        </mxCell>
        <mxCell id="mjO54RYIK2q9qsRKrQm9-40" value="" style="edgeStyle=orthogonalEdgeStyle;rounded=0;orthogonalLoop=1;jettySize=auto;html=1;" edge="1" parent="1" source="mjO54RYIK2q9qsRKrQm9-24" target="mjO54RYIK2q9qsRKrQm9-37">
          <mxGeometry relative="1" as="geometry" />
        </mxCell>
        <mxCell id="mjO54RYIK2q9qsRKrQm9-24" value="Text detection" style="rounded=0;whiteSpace=wrap;html=1;" vertex="1" parent="1">
          <mxGeometry x="200" y="360" width="120" height="60" as="geometry" />
        </mxCell>
        <mxCell id="mjO54RYIK2q9qsRKrQm9-32" value="" style="endArrow=classic;html=1;rounded=0;exitX=0.5;exitY=1;exitDx=0;exitDy=0;entryX=0.5;entryY=0;entryDx=0;entryDy=0;" edge="1" parent="1" source="mjO54RYIK2q9qsRKrQm9-21" target="mjO54RYIK2q9qsRKrQm9-24">
          <mxGeometry width="50" height="50" relative="1" as="geometry">
            <mxPoint x="400" y="420" as="sourcePoint" />
            <mxPoint x="450" y="370" as="targetPoint" />
          </mxGeometry>
        </mxCell>
        <mxCell id="mjO54RYIK2q9qsRKrQm9-34" value="&lt;font style=&quot;font-size: 14px;&quot;&gt;Preprocessing&lt;/font&gt;" style="text;html=1;align=center;verticalAlign=middle;whiteSpace=wrap;rounded=0;" vertex="1" parent="1">
          <mxGeometry x="200" y="-4" width="60" height="30" as="geometry" />
        </mxCell>
        <mxCell id="mjO54RYIK2q9qsRKrQm9-36" value="&lt;font style=&quot;font-size: 14px;&quot;&gt;Extraction&lt;/font&gt;" style="text;html=1;align=center;verticalAlign=middle;whiteSpace=wrap;rounded=0;" vertex="1" parent="1">
          <mxGeometry x="179" y="304" width="60" height="30" as="geometry" />
        </mxCell>
        <mxCell id="mjO54RYIK2q9qsRKrQm9-39" style="edgeStyle=orthogonalEdgeStyle;rounded=0;orthogonalLoop=1;jettySize=auto;html=1;exitX=1;exitY=0.5;exitDx=0;exitDy=0;entryX=0;entryY=0.5;entryDx=0;entryDy=0;" edge="1" parent="1" source="mjO54RYIK2q9qsRKrQm9-37" target="mjO54RYIK2q9qsRKrQm9-38">
          <mxGeometry relative="1" as="geometry" />
        </mxCell>
        <mxCell id="mjO54RYIK2q9qsRKrQm9-37" value="Text recognition&amp;nbsp;" style="rounded=0;whiteSpace=wrap;html=1;" vertex="1" parent="1">
          <mxGeometry x="360" y="360" width="120" height="60" as="geometry" />
        </mxCell>
        <mxCell id="mjO54RYIK2q9qsRKrQm9-38" value="Output" style="shape=parallelogram;perimeter=parallelogramPerimeter;whiteSpace=wrap;html=1;fixedSize=1;" vertex="1" parent="1">
          <mxGeometry x="580" y="360" width="120" height="60" as="geometry" />
        </mxCell>
      </root>
    </mxGraphModel>
  </diagram>
</mxfile>
